<svg width="105" height="102" viewBox="0 0 105 102" fill="none" xmlns="http://www.w3.org/2000/svg">
<path d="M47.36 78L34.56 60C33.12 60.16 31.6267 60.24 30.08 60.24H15.04V78H9.12V22H30.08C37.2267 22 42.8267 23.7067 46.88 27.12C50.9333 30.5333 52.96 35.2267 52.96 41.2C52.96 45.5733 51.84 49.28 49.6 52.32C47.4133 55.3067 44.2667 57.4667 40.16 58.8L53.84 78H47.36ZM29.92 55.2C35.4667 55.2 39.7067 53.9733 42.64 51.52C45.5733 49.0667 47.04 45.6267 47.04 41.2C47.04 36.6667 45.5733 33.2 42.64 30.8C39.7067 28.3467 35.4667 27.12 29.92 27.12H15.04V55.2H29.92Z" fill="black"/>
<path d="M80.32 58.64V78H74.48V58.64L52.08 22H58.4L77.6 53.44L96.8 22H102.72L80.32 58.64Z" fill="black" fill-opacity="0.39"/>
</svg>
